HIERARCHY
ROOT Hips
{
	OFFSET 0.000000 0.000000 0.000000
	CHANNELS 6 Xposition Yposition Zposition Yrotation Xrotation Zrotation
	JOINT Chest
	{
		OFFSET 0.000000 -0.009281 11.569106
		CHANNELS 3 Yrotation Xrotation Zrotation
		JOINT Chest2
		{
			OFFSET -0.000000 0.016865 9.269641
			CHANNELS 3 Yrotation Xrotation Zrotation
			JOINT Chest3
			{
				OFFSET -0.000000 0.000001 8.374491
				CHANNELS 3 Yrotation Xrotation Zrotation
				JOINT Chest4
				{
					OFFSET -0.000000 0.000001 8.374493
					CHANNELS 3 Yrotation Xrotation Zrotation
					JOINT Neck
					{
						OFFSET -0.000000 0.000002 12.152554
						CHANNELS 3 Yrotation Xrotation Zrotation
						JOINT Head
						{
							OFFSET -0.000000 0.040101 7.802319
							CHANNELS 3 Yrotation Xrotation Zrotation
							End Site
							{
								OFFSET -0.000000 0.020947 14.853096
							}
						}
					}
					JOINT RightCollar
					{
						OFFSET 2.894404 0.000001 6.791374
						CHANNELS 3 Yrotation Xrotation Zrotation
						JOINT RightShoulder
						{
							OFFSET 13.574684 0.000001 0.000000
							CHANNELS 3 Yrotation Xrotation Zrotation
							JOINT RightElbow
							{
								OFFSET 23.923903 0.000002 0.000000
								CHANNELS 3 Yrotation Xrotation Zrotation
								JOINT RightWrist
								{
									OFFSET 19.846718 0.012767 0.000000
									CHANNELS 3 Yrotation Xrotation Zrotation
									End Site
									{
										OFFSET 14.973145 0.000001 0.000000
									}
								}
							}
						}
					}
					JOINT LeftCollar
					{
						OFFSET -2.894404 0.000001 6.791374
						CHANNELS 3 Yrotation Xrotation Zrotation
						JOINT LeftShoulder
						{
							OFFSET -13.574684 -0.000001 0.000000
							CHANNELS 3 Yrotation Xrotation Zrotation
							JOINT LeftElbow
							{
								OFFSET -23.923903 -0.000002 0.000000
								CHANNELS 3 Yrotation Xrotation Zrotation
								JOINT LeftWrist
								{
									OFFSET -19.846718 0.012763 0.000000
									CHANNELS 3 Yrotation Xrotation Zrotation
									End Site
									{
										OFFSET -14.973145 -0.000001 0.000000
									}
								}
							}
						}
					}
				}
			}
		}
	}
	JOINT RightHip
	{
		OFFSET 9.469263 0.004643 0.045487
		CHANNELS 3 Yrotation Xrotation Zrotation
		JOINT RightKnee
		{
			OFFSET 0.000000 0.002661 -40.478676
			CHANNELS 3 Yrotation Xrotation Zrotation
			JOINT RightAnkle
			{
				OFFSET 0.000000 0.049106 -35.224068
				CHANNELS 3 Yrotation Xrotation Zrotation
				JOINT RightToe
				{
					OFFSET -0.000001 12.539529 -6.151390
					CHANNELS 3 Yrotation Xrotation Zrotation
					End Site
					{
						OFFSET -0.000001 5.044994 -1.291870
					}
				}
			}
		}
	}
	JOINT LeftHip
	{
		OFFSET -9.469263 0.004641 0.045487
		CHANNELS 3 Yrotation Xrotation Zrotation
		JOINT LeftKnee
		{
			OFFSET 0.000000 0.002661 -40.478676
			CHANNELS 3 Yrotation Xrotation Zrotation
			JOINT LeftAnkle
			{
				OFFSET 0.000000 0.049106 -35.224068
				CHANNELS 3 Yrotation Xrotation Zrotation
				JOINT LeftToe
				{
					OFFSET -0.000001 12.539529 -6.151390
					CHANNELS 3 Yrotation Xrotation Zrotation
					End Site
					{
						OFFSET -0.000001 5.044994 -1.291870
					}
				}
			}
		}
	}
}
MOTION
Frames: 12
Frame Time: 0.016667
8.942369 7.225248 83.240471 -5.877658 -1.578764 -109.094384 -0.471667 -3.188911 0.696959 -0.209055 -1.416893 0.299930 -0.209054 -1.416893 0.299928 -0.156087 -1.062772 0.224452 0.135972 -16.399197 -1.914110 -0.432348 5.711513 -3.506825 4.770888 17.709200 -1.870408 56.244429 55.520992 49.806330 53.216265 15.342492 70.752072 -35.569050 46.340375 -10.620530 -6.881527 11.072333 -5.392053 -46.171099 55.823597 -43.922860 -47.857780 14.996148 -74.064358 54.482606 39.820081 15.979632 -0.660035 -6.153754 -3.858437 1.266386 -2.484833 -7.358905 -0.208140 2.151081 3.782022 0.043406 -0.015824 0.006394 -0.699299 -6.410357 -0.640548 1.051846 -1.931700 0.182604 -1.222184 2.207479 -0.068059 0.011395 -0.053963 -0.003241 
8.964131 7.212662 83.238815 -5.844717 -1.568731 -109.063996 -0.483963 -3.153441 0.696107 -0.215055 -1.401049 0.299958 -0.215055 -1.401049 0.299956 -0.160596 -1.050892 0.224462 0.205696 -16.474507 -1.933455 -0.307773 5.573252 -3.516476 4.845699 17.710242 -1.802962 56.886245 56.063487 50.003238 53.532127 15.270297 70.570908 -31.290377 46.923792 -9.061023 -6.945498 11.003462 -5.382490 -47.304275 56.223020 -44.677961 -48.042239 14.373308 -74.286906 53.406991 42.077288 16.041090 -0.649740 -6.156937 -3.884079 1.262143 -2.453898 -7.375342 -0.215449 2.157120 3.798182 0.043164 -0.015489 0.005208 -0.699713 -6.399584 -0.653698 1.068833 -1.916514 0.174907 -1.238281 2.234060 -0.067850 0.012706 -0.061321 -0.001856 
8.984406 7.199684 83.236366 -5.820334 -1.563674 -109.027243 -0.497850 -3.114626 0.694706 -0.221153 -1.384251 0.299792 -0.221153 -1.384251 0.299790 -0.165178 -1.038296 0.224333 0.285915 -16.566748 -1.954795 -0.164064 5.403768 -3.525937 4.922575 17.752116 -1.763866 57.126135 56.431129 49.874912 53.958382 15.572910 70.400843 -26.683034 47.325547 -7.028036 -7.056645 10.979240 -5.417673 -48.465779 56.696294 -45.519700 -48.083856 13.919082 -74.121172 51.821625 44.670165 16.054508 -0.637946 -6.165923 -3.902976 1.263886 -2.429478 -7.393729 -0.229207 2.166727 3.812436 0.044123 -0.015499 0.002688 -0.698974 -6.395992 -0.682377 1.089337 -1.904347 0.172693 -1.255034 2.267566 -0.062034 0.012611 -0.072423 0.000072 
9.003447 7.186208 83.233345 -5.803779 -1.566688 -108.989820 -0.509275 -3.077967 0.693160 -0.225862 -1.368409 0.299376 -0.225862 -1.368409 0.299374 -0.168718 -1.026418 0.224016 0.369078 -16.669621 -1.975516 -0.014512 5.214597 -3.533239 4.927165 17.723625 -1.828241 57.273062 56.653895 49.668845 54.582367 16.186196 70.229289 -21.730638 47.501377 -4.511232 -7.193828 10.983062 -5.506019 -49.370127 57.161563 -46.167335 -48.250249 13.733561 -73.802810 49.836253 47.233272 15.880951 -0.621440 -6.177062 -3.908140 1.270866 -2.418414 -7.416348 -0.247654 2.181627 3.785936 0.044940 -0.014492 0.000118 -0.693990 -6.402136 -0.707738 1.111860 -1.891915 0.170902 -1.271013 2.306922 -0.056783 0.011173 -0.086428 0.002258 
9.019504 7.171270 83.230568 -5.793376 -1.569966 -108.960799 -0.513123 -3.049263 0.693567 -0.228492 -1.356128 0.299084 -0.228492 -1.356128 0.299092 -0.170697 -1.017207 0.223800 0.438621 -16.771430 -1.991734 0.111233 5.027104 -3.537218 4.872346 17.618760 -1.982120 57.590072 56.847593 49.626915 55.081791 16.816976 70.021815 -17.477892 47.471515 -2.378106 -7.327250 11.003687 -5.651336 -49.889710 57.532193 -46.476596 -48.619933 13.940148 -73.505505 47.230717 49.378709 15.165452 -0.612489 -6.186992 -3.897693 1.282261 -2.420507 -7.427884 -0.267295 2.200123 3.788691 0.046365 -0.011987 -0.001362 -0.691624 -6.413883 -0.711221 1.136598 -1.878768 0.185444 -1.289032 2.346409 -0.073867 0.009366 -0.098484 0.004135 
9.036752 7.158192 83.228790 -5.792667 -1.577335 -108.936422 -0.501401 -3.026421 0.684967 -0.223710 -1.345908 0.295223 -0.223710 -1.345908 0.295223 -0.167124 -1.009539 0.220915 0.470196 -16.868653 -1.991964 0.172046 4.847391 -3.525168 4.831859 17.453186 -2.090683 58.192918 57.203835 49.853551 55.348438 17.391113 69.570640 -13.328004 47.627380 -0.593694 -7.394171 10.955607 -5.735399 -50.365077 57.807381 -46.685255 -49.009493 14.486770 -73.191269 43.875465 51.086837 13.703875 -0.599235 -6.202113 -3.886107 1.288815 -2.428982 -7.436564 -0.286610 2.218754 3.776889 0.047408 -0.008749 -0.003149 -0.689823 -6.435444 -0.701803 1.158519 -1.868423 0.205484 -1.302445 2.386607 -0.100505 0.006918 -0.106582 0.005437 
9.058792 7.147283 83.227684 -5.804209 -1.584391 -108.918650 -0.478646 -3.005745 0.661374 -0.214326 -1.336119 0.284936 -0.214326 -1.336120 0.284936 -0.160115 -1.002190 0.213223 0.464295 -16.956870 -1.968182 0.171579 4.683843 -3.481978 4.906012 17.455021 -2.024332 58.541777 57.606164 49.891124 55.715270 17.998788 68.999076 -8.792340 47.833331 1.151977 -7.368679 10.854076 -5.592592 -51.081974 57.939340 -47.054966 -49.316418 15.175903 -72.806688 40.506068 52.787790 12.110768 -0.592531 -6.231476 -3.884469 1.294087 -2.435682 -7.430922 -0.301968 2.237227 3.724996 0.046931 -0.005623 -0.005312 -0.695330 -6.474814 -0.679441 1.179082 -1.851877 0.240597 -1.313613 2.423707 -0.143988 0.005594 -0.109981 0.006303 
9.081212 7.138012 83.226051 -5.819973 -1.594661 -108.913063 -0.449832 -2.981048 0.630634 -0.202309 -1.325028 0.271168 -0.202309 -1.325028 0.271169 -0.151137 -0.993861 0.202929 0.441631 -17.038675 -1.926669 0.146062 4.532083 -3.411946 5.028276 17.604780 -1.921182 58.532290 57.821246 49.604993 56.015331 18.669487 68.441685 -4.218709 47.881470 2.849048 -7.405443 10.708922 -5.504161 -51.747255 58.213518 -47.417752 -49.538249 15.917621 -72.251770 36.738935 54.267847 10.186737 -0.585932 -6.265204 -3.885289 1.293566 -2.441701 -7.415156 -0.312460 2.254131 3.694416 0.046905 -0.003718 -0.006495 -0.698035 -6.521439 -0.647011 1.191802 -1.832957 0.275384 -1.318759 2.460449 -0.183797 0.004069 -0.112129 0.007292 
9.103529 7.132778 83.223572 -5.832176 -1.606145 -108.921764 -0.426220 -2.960794 0.611883 -0.191597 -1.315731 0.263354 -0.191597 -1.315731 0.263356 -0.143125 -0.986882 0.197097 0.426521 -17.105259 -1.890124 0.132374 4.408685 -3.348701 5.104596 17.791975 -1.909035 58.307235 57.881748 49.123024 56.130758 19.383991 67.910044 -0.575772 47.834400 3.971136 -7.513743 10.596601 -5.580034 -52.307419 58.651709 -47.722802 -49.781882 16.672772 -71.508488 32.540534 55.766900 7.947979 -0.581561 -6.292027 -3.884526 1.294005 -2.449251 -7.388773 -0.322115 2.269767 3.672196 0.046803 -0.003819 -0.008513 -0.701067 -6.566379 -0.629865 1.201129 -1.812578 0.322911 -1.320130 2.497014 -0.209337 0.003220 -0.114113 0.008312 
9.123703 7.130839 83.221191 -5.840096 -1.617125 -108.940636 -0.412498 -2.947947 0.608897 -0.185267 -1.309855 0.262361 -0.185267 -1.309855 0.262361 -0.138381 -0.982471 0.196364 0.427823 -17.154660 -1.863183 0.145261 4.317421 -3.297766 5.130647 17.821524 -1.971365 58.197720 57.994364 48.788772 56.124535 20.159682 67.349873 2.532940 47.613532 4.718745 -7.572521 10.516635 -5.601427 -53.007073 59.059990 -48.157137 -50.167702 17.531176 -70.723808 27.286705 57.273568 5.354144 -0.576803 -6.309116 -3.869429 1.288202 -2.460910 -7.375568 -0.327378 2.282266 3.659617 0.047470 -0.003115 -0.010195 -0.705092 -6.603642 -0.628197 1.208867 -1.797646 0.368564 -1.320285 2.533190 -0.212816 0.003798 -0.114003 0.009640 
9.141836 7.132361 83.219971 -5.849512 -1.626854 -108.969623 -0.398723 -2.943770 0.609976 -0.179083 -1.307927 0.263162 -0.179083 -1.307928 0.263163 -0.133743 -0.981023 0.196978 0.431254 -17.187437 -1.838932 0.160746 4.257031 -3.251318 5.139503 17.722526 -2.013296 58.219255 58.191880 48.650300 55.963421 21.011320 66.698798 5.498945 47.235679 5.082325 -7.621758 10.535339 -5.551200 -53.618074 59.342412 -48.473484 -50.692943 18.492828 -70.006099 21.126345 58.835823 2.312183 -0.577641 -6.324804 -3.842201 1.282458 -2.470679 -7.378821 -0.328689 2.289553 3.680388 0.046794 -0.002344 -0.010682 -0.711649 -6.639224 -0.633286 1.212940 -1.785668 0.411542 -1.318407 2.564641 -0.205436 0.005572 -0.109896 0.010001 
9.159461 7.137519 83.220062 -5.862608 -1.635548 -109.003672 -0.383456 -2.945937 0.606300 -0.172175 -1.308722 0.262277 -0.172175 -1.308722 0.262275 -0.128564 -0.981616 0.196331 0.433945 -17.202928 -1.814962 0.174357 4.228708 -3.205867 5.162125 17.744543 -2.032417 57.972644 58.297181 48.280924 55.783804 21.974855 66.057587 8.563528 46.512550 5.346973 -7.666636 10.418114 -5.504815 -54.154258 59.598878 -48.749983 -51.103769 19.542486 -69.457068 14.930112 59.744436 -0.877933 -0.582581 -6.342244 -3.821358 1.276724 -2.477759 -7.374246 -0.329177 2.291566 3.696449 0.045768 -0.001073 -0.011304 -0.721076 -6.673343 -0.646604 1.211971 -1.780874 0.460851 -1.312261 2.592371 -0.193606 0.007551 -0.101425 0.010091 
